#tb 0: 1/44100
#media_type 0: audio
#codec_id 0: pcm_s16le
#sample_rate 0: 44100
#channel_layout 0: 3
#channel_layout_name 0: stereo
0,          0,          0,     1471,     5884, 0x00000000
0,       1471,       1471,     1471,     5884, 0x00000000
0,       2942,       2942,     1472,     5888, 0x00000000
0,       4414,       4414,     1471,     5884, 0x00000000
0,       5885,       5885,     1472,     5888, 0x00000000
0,       7357,       7357,     1471,     5884, 0x00000000
0,       8828,       8828,     1472,     5888, 0x00000000
0,      10300,      10300,     1471,     5884, 0x00000000
0,      11771,      11771,     1472,     5888, 0x00000000
0,      13243,      13243,     1471,     5884, 0x00000000
0,      14714,      14714,     1472,     5888, 0x174b2bd4
0,      16186,      16186,     1471,     5884, 0xfab9563d
0,      17657,      17657,     1472,     5888, 0x0129a4f5
0,      19129,      19129,     1471,     5884, 0xf12b15dd
0,      20600,      20600,     1472,     5888, 0x60c8c922
0,      22072,      22072,     1471,     5884, 0x85693c81
0,      23543,      23543,     1472,     5888, 0xcefcf0e0
0,      25015,      25015,     1471,     5884, 0x243974ff
0,      26486,      26486,     1471,     5884, 0x9101b901
0,      27957,      27957,     1472,     5888, 0xe3c68cb9
0,      29429,      29429,     1471,     5884, 0x80f2ff5f
0,      30900,      30900,     1472,     5888, 0xfc2d19dc
0,      32372,      32372,     1471,     5884, 0xb6e0af21
0,      33843,      33843,     1472,     5888, 0x476e74ff
0,      35315,      35315,     1471,     5884, 0x3921bc7f
0,      36786,      36786,     1472,     5888, 0x44180a3f
0,      38258,      38258,     1471,     5884, 0x01b5a119
0,      39729,      39729,     1472,     5888, 0xdd7ad621
0,      41201,      41201,     1471,     5884, 0xadabe898
0,      42672,      42672,     1472,     5888, 0x2141ff8e
0,      44144,      44144,     1471,     5884, 0xfb5118fb
0,      45615,      45615,     1472,     5888, 0x06d31461
0,      47087,      47087,     1471,     5884, 0x80ce34c1
0,      48558,      48558,     1472,     5888, 0x72bf392f
0,      50030,      50030,     1471,     5884, 0x9d9237cf
0,      51501,      51501,     1471,     5884, 0xf5c9ce23
0,      52972,      52972,     1472,     5888, 0x12a05dc5
0,      54444,      54444,     1471,     5884, 0xd3ed5d4b
0,      55915,      55915,     1472,     5888, 0x06557401
0,      57387,      57387,     1471,     5884, 0x53d81662
0,      58858,      58858,     1472,     5888, 0xd7e0d98d
0,      60330,      60330,     1471,     5884, 0xdf00752e
0,      61801,      61801,     1472,     5888, 0x82f1d7a9
0,      63273,      63273,     1471,     5884, 0x9cb3aba9
0,      64744,      64744,     1472,     5888, 0xd6f98e91
0,      66216,      66216,     1471,     5884, 0xaa7f7c09
0,      67687,      67687,     1472,     5888, 0xb97a82a7
0,      69159,      69159,     1471,     5884, 0x375a3d53
0,      70630,      70630,     1472,     5888, 0xa0a460cb
0,      72102,      72102,     1471,     5884, 0xe05efbab
0,      73573,      73573,     1472,     5888, 0x95e151f0
0,      75045,      75045,     1471,     5884, 0x44ac688d
0,      76516,      76516,     1471,     5884, 0xfc6d929f
0,      77987,      77987,     1472,     5888, 0x6406c5f1
0,      79459,      79459,     1471,     5884, 0x4ee9e48c
0,      80930,      80930,     1472,     5888, 0xd55d43d0
0,      82402,      82402,     1471,     5884, 0xcae69baf
0,      83873,      83873,     1472,     5888, 0x4c01f1f5
0,      85345,      85345,     1471,     5884, 0xf7d6dab6
0,      86816,      86816,     1472,     5888, 0x1affdeb5
0,      88288,      88288,     1471,     5884, 0x6db72487
0,      89759,      89759,     1472,     5888, 0x4f344e49
0,      91231,      91231,     1471,     5884, 0x2df3827b
0,      92702,      92702,     1472,     5888, 0x1d1fc283
0,      94174,      94174,     1471,     5884, 0x22eb1dd5
0,      95645,      95645,     1472,     5888, 0x734e7093
0,      97117,      97117,     1471,     5884, 0x357c9531
0,      98588,      98588,     1472,     5888, 0x108c102d
0,     100060,     100060,     1471,     5884, 0x96ad26c6
0,     101531,     101531,     1472,     5888, 0x7bea1996
0,     103003,     103003,     1471,     5884, 0x124a1f8e
0,     104474,     104474,     1471,     5884, 0x08d272fb
0,     105945,     105945,     1472,     5888, 0x88832c6b
0,     107417,     107417,     1471,     5884, 0xedf41493
0,     108888,     108888,     1472,     5888, 0xc4f226d7
0,     110360,     110360,     1471,     5884, 0x97730397
0,     111831,     111831,     1472,     5888, 0xbc3540e9
0,     113303,     113303,     1471,     5884, 0x8adfa135
0,     114774,     114774,     1472,     5888, 0x6d4be121
0,     116246,     116246,     1471,     5884, 0xc3daea85
0,     117717,     117717,     1472,     5888, 0x5498e9f0
0,     119189,     119189,     1471,     5884, 0xa0eb691f
0,     120660,     120660,     1472,     5888, 0x775c7c59
0,     122132,     122132,     1471,     5884, 0x9f108fd1
0,     123603,     123603,     1472,     5888, 0x72d53062
0,     125075,     125075,     1471,     5884, 0x13a93faa
0,     126546,     126546,     1472,     5888, 0x64773c8e
0,     128018,     128018,     1471,     5884, 0xaf696999
0,     129489,     129489,     1471,     5884, 0xf45e7e81
0,     130960,     130960,     1472,     5888, 0x00000000
0,     132432,     132432,     1471,     5884, 0x00000000
0,     133903,     133903,     1472,     5888, 0x00000000
0,     135375,     135375,     1471,     5884, 0x00000000
0,     136846,     136846,     1472,     5888, 0x00000000
0,     138318,     138318,     1471,     5884, 0x00000000
0,     139789,     139789,     1472,     5888, 0x00000000
0,     141261,     141261,     1471,     5884, 0x00000000
0,     142732,     142732,     1472,     5888, 0x00000000
0,     144204,     144204,     1471,     5884, 0x00000000
0,     145675,     145675,     1472,     5888, 0x00000000
0,     147147,     147147,     1471,     5884, 0x00000000
0,     148618,     148618,     1472,     5888, 0x00000000
0,     150090,     150090,     1471,     5884, 0x00000000
0,     151561,     151561,     1472,     5888, 0x00000000
0,     153033,     153033,     1471,     5884, 0x00000000
0,     154504,     154504,     1471,     5884, 0x00000000
0,     155975,     155975,     1472,     5888, 0x00000000
0,     157447,     157447,     1471,     5884, 0x00000000
0,     158918,     158918,     1472,     5888, 0x00000000
0,     160390,     160390,     1471,     5884, 0x00000000
0,     161861,     161861,     1472,     5888, 0x00000000
0,     163333,     163333,     1471,     5884, 0x00000000
0,     164804,     164804,     1472,     5888, 0x00000000
0,     166276,     166276,     1471,     5884, 0x00000000
0,     167747,     167747,     1472,     5888, 0x00000000
0,     169219,     169219,     1471,     5884, 0x00000000
0,     170690,     170690,     1472,     5888, 0x00000000
0,     172162,     172162,     1471,     5884, 0xfe4b2bd4
0,     173633,     173633,     1472,     5888, 0x00000000
0,     175105,     175105,     1471,     5884, 0x00000000
0,     176576,     176576,     1472,     5888, 0x00000000
0,     178048,     178048,     1471,     5884, 0x00000000
0,     179519,     179519,     1471,     5884, 0x00000000
0,     180990,     180990,     1472,     5888, 0x00000000
0,     182462,     182462,     1471,     5884, 0x00000000
0,     183933,     183933,     1472,     5888, 0x00000000
0,     185405,     185405,     1471,     5884, 0x00000000
0,     186876,     186876,     1472,     5888, 0x00000000
0,     188348,     188348,     1471,     5884, 0x00000000
0,     189819,     189819,     1472,     5888, 0x00000000
0,     191291,     191291,     1471,     5884, 0x00000000
0,     192762,     192762,     1472,     5888, 0x00000000
0,     194234,     194234,     1471,     5884, 0x00000000
0,     195705,     195705,     1472,     5888, 0x00000000
0,     197177,     197177,     1471,     5884, 0x00000000
0,     198648,     198648,     1472,     5888, 0x00000000
0,     200120,     200120,     1471,     5884, 0x00000000
0,     201591,     201591,     1472,     5888, 0x00000000
0,     203063,     203063,     1471,     5884, 0x00000000
0,     204534,     204534,     1472,     5888, 0x00000000
0,     206006,     206006,     1471,     5884, 0x00000000
0,     207477,     207477,     1262,     5048, 0x00000000
